<svg width="35" height="120" viewBox="0 0 35 259" fill="none" xmlns="http://www.w3.org/2000/svg">
<g filter="url(#filter0_dd)">
<path d="M4.98 241.452C4.956 241.26 4.944 240.96 4.944 240.552V239.616C4.944 238.008 5.064 236.436 5.304 234.9C5.424 234.108 5.544 233.496 5.664 233.064H10.812C10.788 233.424 10.728 234.024 10.632 234.864C10.512 235.992 10.452 236.976 10.452 237.816C10.452 238.752 10.488 239.508 10.56 240.084C10.608 240.636 10.704 241.092 10.848 241.452H4.98ZM30.288 239.616C30.288 242.016 30.084 243.924 29.676 245.34C29.244 246.732 28.536 247.788 27.552 248.508C26.616 249.204 25.38 249.684 23.844 249.948C22.284 250.188 20.208 250.308 17.616 250.308C15.336 250.308 13.488 250.224 12.072 250.056C10.656 249.864 9.468 249.528 8.508 249.048C7.524 248.544 6.768 247.812 6.24 246.852C5.688 245.868 5.316 244.572 5.124 242.964H17.616C18.96 242.964 20.256 242.94 21.504 242.892C22.464 242.844 23.184 242.664 23.664 242.352C24.144 242.016 24.444 241.5 24.564 240.804C24.708 240.132 24.78 239.136 24.78 237.816C24.78 236.448 24.72 235.284 24.6 234.324C24.576 233.94 24.516 233.472 24.42 232.92H29.64C29.904 234.096 30.084 235.428 30.18 236.916C30.252 237.732 30.288 238.632 30.288 239.616ZM30.288 91.6777C30.288 94.1977 30.084 96.1417 29.676 97.5097C29.268 98.8777 28.608 99.8857 27.696 100.534C26.856 101.134 25.788 101.506 24.492 101.65C23.196 101.794 21.264 101.866 18.696 101.866H5.232V94.6657H20.136C21.024 94.6657 21.876 94.6417 22.692 94.5937C23.34 94.5457 23.808 94.4377 24.096 94.2697C24.384 94.1017 24.564 93.8137 24.636 93.4057C24.732 93.0457 24.78 92.4697 24.78 91.6777V90.8497C24.78 90.6577 24.756 90.4417 24.708 90.2017H30.252C30.276 90.3697 30.288 90.6097 30.288 90.9217V91.6777ZM5.232 88.6897V81.4897H18.696C21.048 81.4897 22.824 81.5377 24.024 81.6337C25.224 81.7297 26.232 81.9937 27.048 82.4257C27.984 82.9057 28.704 83.6377 29.208 84.6217C29.712 85.6057 30.036 86.9617 30.18 88.6897H5.232Z" fill="white"/>
<path d="M17.616 215.447C15.528 215.447 14.16 215.459 13.512 215.483C12.528 215.531 11.82 215.663 11.388 215.879C10.932 216.095 10.656 216.443 10.56 216.923C10.488 217.403 10.452 218.087 10.452 218.975C10.452 220.007 10.5 220.679 10.596 220.991H4.98C4.956 220.775 4.944 220.451 4.944 220.019V218.975C4.944 216.287 5.16 214.211 5.592 212.747C6 211.259 6.684 210.179 7.644 209.507C8.532 208.883 9.696 208.499 11.136 208.355C12.576 208.187 14.736 208.103 17.616 208.103C20.136 208.103 22.08 208.163 23.448 208.283C24.792 208.379 25.908 208.643 26.796 209.075C27.804 209.555 28.572 210.299 29.1 211.307C29.628 212.291 29.976 213.671 30.144 215.447H17.616ZM30.288 218.975C30.288 222.479 29.904 224.999 29.136 226.535C28.752 227.327 28.236 227.951 27.588 228.407C26.94 228.863 26.136 229.199 25.176 229.415C24.336 229.607 23.376 229.727 22.296 229.775C21.192 229.823 19.632 229.847 17.616 229.847C15.096 229.847 13.164 229.799 11.82 229.703C10.476 229.583 9.348 229.307 8.436 228.875C7.452 228.395 6.696 227.663 6.168 226.679C5.64 225.695 5.28 224.303 5.088 222.503H17.616C19.032 222.503 20.388 222.479 21.684 222.431C22.668 222.383 23.388 222.263 23.844 222.071C24.3 221.855 24.564 221.507 24.636 221.027C24.732 220.619 24.78 219.935 24.78 218.975C24.78 217.991 24.744 217.319 24.672 216.959H30.252C30.276 217.175 30.288 217.499 30.288 217.931V218.975ZM5.232 204.062V196.862H30V204.062H5.232ZM24.492 195.35V195.062C24.492 193.886 24.444 193.058 24.348 192.578C24.228 192.074 23.964 191.702 23.556 191.462C23.124 191.198 22.44 191.054 21.504 191.03C20.304 190.982 19.008 190.958 17.616 190.958C16.248 190.958 14.94 190.982 13.692 191.03C12.756 191.078 12.072 191.234 11.64 191.498C11.208 191.738 10.944 192.134 10.848 192.686C10.776 193.238 10.74 194.03 10.74 195.062V195.35H5.232V195.062C5.232 193.142 5.316 191.546 5.484 190.274C5.652 188.978 5.916 187.91 6.276 187.07C6.636 186.254 7.128 185.606 7.752 185.126C8.376 184.646 9.156 184.298 10.092 184.082C10.932 183.89 11.928 183.77 13.08 183.722C14.208 183.65 15.72 183.614 17.616 183.614C19.536 183.614 21.06 183.65 22.188 183.722C23.316 183.77 24.3 183.89 25.14 184.082C26.076 184.298 26.856 184.646 27.48 185.126C28.104 185.606 28.596 186.254 28.956 187.07C29.316 187.91 29.58 188.978 29.748 190.274C29.916 191.546 30 193.142 30 195.062V195.35H24.492ZM5.232 179.594V172.394H30V179.594H5.232ZM5.232 170.882L5.232 161.738H10.74L10.74 170.882H5.232ZM14.736 170.882L14.736 163.43H20.244L20.244 170.882H14.736ZM24.492 170.882V161.738H30V170.882H24.492ZM5.232 157.41V150.21H30V157.41H5.232ZM21.576 147.258V148.698H16.068V147.474C16.068 146.73 16.044 146.166 15.996 145.782C15.924 145.398 15.804 145.098 15.636 144.882C15.468 144.69 15.216 144.558 14.88 144.486C14.544 144.414 14.052 144.378 13.404 144.378C12.756 144.378 12.264 144.414 11.928 144.486C11.568 144.558 11.304 144.69 11.136 144.882C10.968 145.074 10.86 145.362 10.812 145.746C10.764 146.106 10.74 146.682 10.74 147.474V148.698H5.232V144.99C5.232 143.286 5.4 141.906 5.736 140.85C6.072 139.794 6.588 138.978 7.284 138.402C7.932 137.874 8.736 137.526 9.696 137.358C10.656 137.166 11.892 137.07 13.404 137.07C15.348 137.07 16.848 137.25 17.904 137.61C19.248 138.114 20.196 139.002 20.748 140.274L30 136.53V144.09L21.576 147.258ZM10.92 116.088C10.824 116.88 10.692 118.272 10.524 120.264C10.476 121.368 10.452 122.256 10.452 122.928C10.452 123.792 10.476 124.608 10.524 125.376H4.944V124.476C4.944 122.508 5.076 120.468 5.34 118.356C5.436 117.684 5.568 116.928 5.736 116.088H10.92ZM22.692 122.028C22.188 122.028 21.828 122.064 21.612 122.136C21.372 122.208 21.216 122.328 21.144 122.496C21.048 122.664 20.976 122.952 20.928 123.36L20.388 127.788C20.1 130.404 19.248 132.168 17.832 133.08C17.232 133.488 16.5 133.764 15.636 133.908C14.772 134.052 13.716 134.124 12.468 134.124C9.804 134.124 7.884 133.44 6.708 132.072C5.748 130.968 5.184 129.24 5.016 126.888H12.252C12.564 126.888 12.828 126.876 13.044 126.852C13.26 126.828 13.428 126.78 13.548 126.708C13.692 126.636 13.8 126.516 13.872 126.348C13.92 126.18 13.956 125.928 13.98 125.592L14.592 120.624C14.736 119.592 14.916 118.752 15.132 118.104C15.348 117.456 15.684 116.904 16.14 116.448C17.268 115.368 19.272 114.828 22.152 114.828C25.2 114.828 27.336 115.5 28.56 116.844C29.112 117.444 29.52 118.176 29.784 119.04C30.024 119.88 30.18 120.876 30.252 122.028H22.692ZM30.288 123.936C30.288 126.336 30.18 128.568 29.964 130.632C29.844 131.856 29.724 132.78 29.604 133.404H24.348C24.468 131.988 24.588 130.368 24.708 128.544C24.756 127.392 24.78 126.576 24.78 126.096C24.78 124.8 24.744 123.948 24.672 123.54H30.288V123.936ZM6.24 76.9022H5.232V69.7022L28.956 55.8062H30V62.9702L6.24 76.9022ZM14.268 62.6462H5.232V55.8062H25.968L14.268 62.6462ZM9.228 76.9022L20.928 70.0622H30V76.9022H9.228ZM5.232 51.1327L5.232 43.9327H30V51.1327H5.232ZM5.232 41.2658V20.9978H10.992V41.2658H5.232ZM12.432 34.7498V27.5498H30V34.7498H12.432ZM5.232 18.3319V11.1319H30V18.3319H5.232ZM5.232 9.61987V0.475873H10.74V9.61987H5.232ZM14.736 9.61987V2.16788H20.244V9.61987H14.736ZM24.492 9.61987V0.475873H30V9.61987H24.492Z" fill="#66FCF1"/>
</g>
<defs>
<filter id="filter0_dd" x="0.94397" y="0.475876" width="33.344" height="257.832" filterUnits="userSpaceOnUse" color-interpolation-filters="sRGB">
<feFlood flood-opacity="0" result="BackgroundImageFix"/>
<feColorMatrix in="SourceAlpha" type="matrix" values="0 0 0 0 0 0 0 0 0 0 0 0 0 0 0 0 0 0 127 0"/>
<feOffset dy="4"/>
<feGaussianBlur stdDeviation="2"/>
<feColorMatrix type="matrix" values="0 0 0 0 0 0 0 0 0 0 0 0 0 0 0 0 0 0 0.25 0"/>
<feBlend mode="normal" in2="BackgroundImageFix" result="effect1_dropShadow"/>
<feColorMatrix in="SourceAlpha" type="matrix" values="0 0 0 0 0 0 0 0 0 0 0 0 0 0 0 0 0 0 127 0"/>
<feOffset dy="4"/>
<feGaussianBlur stdDeviation="2"/>
<feColorMatrix type="matrix" values="0 0 0 0 0 0 0 0 0 0 0 0 0 0 0 0 0 0 0.25 0"/>
<feBlend mode="normal" in2="effect1_dropShadow" result="effect2_dropShadow"/>
<feBlend mode="normal" in="SourceGraphic" in2="effect2_dropShadow" result="shape"/>
</filter>
</defs>
</svg>
