<svg width="85" height="229" viewBox="0 0 154 770" fill="none" xmlns="http://www.w3.org/2000/svg">
<path d="M30.049 587.212L30.049 550.054H40.609V587.212H30.049ZM43.249 575.266V562.066H75.457V575.266H43.249ZM30.049 402.596V389.396H75.457V402.596H30.049ZM30.049 386.624L30.049 369.86H40.147V386.624H30.049ZM47.473 386.624V372.962H57.571V386.624H47.473ZM65.359 386.624V369.86H75.457V386.624H65.359Z" fill="#66FCF1"/>
<path d="M30.049 545.166V531.966H75.457V545.166H30.049ZM30.049 529.194V512.43H40.147V529.194H30.049ZM47.473 529.194V515.532H57.571V529.194H47.473ZM65.359 529.194V512.43H75.457V529.194H65.359ZM29.587 489.448C29.543 489.096 29.521 488.546 29.521 487.798V486.082C29.521 483.134 29.741 480.252 30.181 477.436C30.401 475.984 30.621 474.862 30.841 474.07H40.279C40.235 474.73 40.125 475.83 39.949 477.37C39.729 479.438 39.619 481.242 39.619 482.782C39.619 484.498 39.685 485.884 39.817 486.94C39.905 487.952 40.081 488.788 40.345 489.448H29.587ZM75.985 486.082C75.985 490.482 75.611 493.98 74.863 496.576C74.071 499.128 72.773 501.064 70.969 502.384C69.253 503.66 66.987 504.54 64.171 505.024C61.311 505.464 57.505 505.684 52.753 505.684C48.573 505.684 45.185 505.53 42.589 505.222C39.993 504.87 37.815 504.254 36.055 503.374C34.251 502.45 32.865 501.108 31.897 499.348C30.885 497.544 30.203 495.168 29.851 492.22H52.753C55.217 492.22 57.593 492.176 59.881 492.088C61.641 492 62.961 491.67 63.841 491.098C64.721 490.482 65.271 489.536 65.491 488.26C65.755 487.028 65.887 485.202 65.887 482.782C65.887 480.274 65.777 478.14 65.557 476.38C65.513 475.676 65.403 474.818 65.227 473.806H74.797C75.281 475.962 75.611 478.404 75.787 481.132C75.919 482.628 75.985 484.278 75.985 486.082ZM30.049 466.985V453.785H75.457V466.985H30.049ZM57.967 441.509V451.013H47.407V441.509H30.049V428.309H75.457V441.509H57.967ZM40.477 330.642C40.301 332.094 40.059 334.646 39.751 338.298C39.663 340.322 39.619 341.95 39.619 343.182C39.619 344.766 39.663 346.262 39.751 347.67H29.521V346.02C29.521 342.412 29.763 338.672 30.247 334.8C30.423 333.568 30.665 332.182 30.973 330.642H40.477ZM62.059 341.532C61.135 341.532 60.475 341.598 60.079 341.73C59.639 341.862 59.353 342.082 59.221 342.39C59.045 342.698 58.913 343.226 58.825 343.974L57.835 352.092C57.307 356.888 55.745 360.122 53.149 361.794C52.049 362.542 50.707 363.048 49.123 363.312C47.539 363.576 45.603 363.708 43.315 363.708C38.431 363.708 34.911 362.454 32.755 359.946C30.995 357.922 29.961 354.754 29.653 350.442H42.919C43.491 350.442 43.975 350.42 44.371 350.376C44.767 350.332 45.075 350.244 45.295 350.112C45.559 349.98 45.757 349.76 45.889 349.452C45.977 349.144 46.043 348.682 46.087 348.066L47.209 338.958C47.473 337.066 47.803 335.526 48.199 334.338C48.595 333.15 49.211 332.138 50.047 331.302C52.115 329.322 55.789 328.332 61.069 328.332C66.657 328.332 70.573 329.564 72.817 332.028C73.829 333.128 74.577 334.47 75.061 336.054C75.501 337.594 75.787 339.42 75.919 341.532H62.059ZM75.985 345.03C75.985 349.43 75.787 353.522 75.391 357.306C75.171 359.55 74.951 361.244 74.731 362.388H65.095C65.315 359.792 65.535 356.822 65.755 353.478C65.843 351.366 65.887 349.87 65.887 348.99C65.887 346.614 65.821 345.052 65.689 344.304H75.985V345.03ZM29.587 306.466C29.543 306.114 29.521 305.564 29.521 304.816V303.1C29.521 300.152 29.741 297.27 30.181 294.454C30.401 293.002 30.621 291.88 30.841 291.088H40.279C40.235 291.748 40.125 292.848 39.949 294.388C39.729 296.456 39.619 298.26 39.619 299.8C39.619 301.516 39.685 302.902 39.817 303.958C39.905 304.97 40.081 305.806 40.345 306.466H29.587ZM75.985 303.1C75.985 307.5 75.611 310.998 74.863 313.594C74.071 316.146 72.773 318.082 70.969 319.402C69.253 320.678 66.987 321.558 64.171 322.042C61.311 322.482 57.505 322.702 52.753 322.702C48.573 322.702 45.185 322.548 42.589 322.24C39.993 321.888 37.815 321.272 36.055 320.392C34.251 319.468 32.865 318.126 31.897 316.366C30.885 314.562 30.203 312.186 29.851 309.238H52.753C55.217 309.238 57.593 309.194 59.881 309.106C61.641 309.018 62.961 308.688 63.841 308.116C64.721 307.5 65.271 306.554 65.491 305.278C65.755 304.046 65.887 302.22 65.887 299.8C65.887 297.292 65.777 295.158 65.557 293.398C65.513 292.694 65.403 291.836 65.227 290.824H74.797C75.281 292.98 75.611 295.422 75.787 298.15C75.919 299.646 75.985 301.296 75.985 303.1ZM30.049 273.706V272.584L48.133 267.37L75.457 274.96V288.16L30.049 273.706ZM67.405 258.856V269.878L57.241 267.106V261.826L30.049 269.614L30.049 257.536L75.457 243.082V256.546L67.405 258.856ZM30.049 238.692V225.492H75.457V238.692H30.049ZM51.235 222.72V221.136C51.235 219.728 51.191 218.694 51.103 218.034C50.971 217.33 50.707 216.78 50.311 216.384C49.959 215.988 49.453 215.746 48.793 215.658C48.089 215.526 47.055 215.46 45.691 215.46C44.327 215.46 43.315 215.526 42.655 215.658C41.951 215.746 41.401 215.988 41.005 216.384C40.653 216.78 40.433 217.33 40.345 218.034C40.213 218.738 40.147 219.772 40.147 221.136V222.72H30.049V217.242C30.049 213.986 30.379 211.346 31.039 209.322C31.655 207.254 32.623 205.692 33.943 204.636C35.175 203.624 36.737 202.942 38.629 202.59C40.477 202.238 42.831 202.062 45.691 202.062C48.419 202.062 50.685 202.238 52.489 202.59C54.293 202.898 55.811 203.536 57.043 204.504C58.451 205.604 59.529 207.188 60.277 209.256C60.981 211.28 61.333 213.942 61.333 217.242V222.72H51.235ZM30.049 188.177V187.055L48.133 181.841L75.457 189.431V202.631L30.049 188.177ZM67.405 173.327V184.349L57.241 181.577V176.297L30.049 184.085V172.007L75.457 157.553V171.017L67.405 173.327ZM30.049 153.162L30.049 139.962H75.457V153.162H30.049ZM65.359 137.19V136.662C65.359 134.506 65.271 132.988 65.095 132.108C64.875 131.184 64.391 130.502 63.643 130.062C62.851 129.578 61.597 129.314 59.881 129.27C57.681 129.182 55.305 129.138 52.753 129.138C50.245 129.138 47.847 129.182 45.559 129.27C43.843 129.358 42.589 129.644 41.797 130.128C41.005 130.568 40.521 131.294 40.345 132.306C40.213 133.318 40.147 134.77 40.147 136.662V137.19H30.049V136.662C30.049 133.142 30.203 130.216 30.511 127.884C30.819 125.508 31.303 123.55 31.963 122.01C32.623 120.514 33.525 119.326 34.669 118.446C35.813 117.566 37.243 116.928 38.959 116.532C40.499 116.18 42.325 115.96 44.437 115.872C46.505 115.74 49.277 115.674 52.753 115.674C56.273 115.674 59.067 115.74 61.135 115.872C63.203 115.96 65.007 116.18 66.547 116.532C68.263 116.928 69.693 117.566 70.837 118.446C71.981 119.326 72.883 120.514 73.543 122.01C74.203 123.55 74.687 125.508 74.995 127.884C75.303 130.216 75.457 133.142 75.457 136.662V137.19H65.359ZM30.049 108.303V95.103H75.457V108.303H30.049ZM30.049 92.331V75.567H40.147V92.331H30.049ZM47.473 92.331V78.669H57.571V92.331H47.473ZM65.359 92.331V75.567H75.457V92.331H65.359Z" fill="white"/>
<path d="M91.957 676.879L49.0946 715.894M91.957 676.879L49.0946 637.863M91.957 676.879L49.0946 694.219M91.957 676.879L49.0946 659.538M49.0946 715.894L20.5197 698.554M49.0946 715.894V694.219M20.5197 698.554L49.0946 694.219M20.5197 698.554L20.5197 676.879M20.5197 655.203L49.0946 637.863M20.5197 655.203L49.0946 659.538M20.5197 655.203V676.879M49.0946 637.863V659.538M49.0946 694.219V659.538M49.0946 694.219L20.5197 676.879M49.0946 659.538L20.5197 676.879" stroke="white" stroke-width="3"/>
<g filter="url(#filter0_d)">
<path d="M99.2965 0L99.2965 348.929L114.755 390.153L114.755 20.6119L99.2965 0Z" fill="#2A2A2A"/>
</g>
<path d="M129.478 770L129.478 421.071L114.019 379.847L114.019 749.388L129.478 770Z" fill="#C4C4C4"/>
<defs>
<filter id="filter0_d" x="99.2965" y="0" width="30.4589" height="398.153" filterUnits="userSpaceOnUse" color-interpolation-filters="sRGB">
<feFlood flood-opacity="0" result="BackgroundImageFix"/>
<feColorMatrix in="SourceAlpha" type="matrix" values="0 0 0 0 0 0 0 0 0 0 0 0 0 0 0 0 0 0 127 0"/>
<feOffset dx="11" dy="4"/>
<feGaussianBlur stdDeviation="2"/>
<feColorMatrix type="matrix" values="0 0 0 0 0 0 0 0 0 0 0 0 0 0 0 0 0 0 0.34 0"/>
<feBlend mode="normal" in2="BackgroundImageFix" result="effect1_dropShadow"/>
<feBlend mode="normal" in="SourceGraphic" in2="effect1_dropShadow" result="shape"/>
</filter>
</defs>
</svg>
