<svg  viewBox="0 0 542 120" fill="none" xmlns="http://www.w3.org/2000/svg">
<path d="M161 15L521 15L481 91H121L161 15Z" fill="#66FCF1"/>
<path d="M190.956 73.086C190.648 71.854 190.252 70.138 189.768 67.938L187.986 60.678L186.006 52.362L180.66 29.592H193.794L203.166 75H191.418L190.956 73.086ZM201.318 52.296L206.268 29.592H219.798L230.622 75H219.336L218.808 72.822L217.422 67.08L215.442 58.698C214.606 55.31 213.814 51.988 213.066 48.732H212.67L210.426 58.698L209.7 62.064C209.48 62.988 209.26 63.868 209.04 64.704C208.864 65.54 208.688 66.332 208.512 67.08L207.192 72.822L206.664 75H205.938L201.318 52.296ZM227.982 51.9L231.942 29.592H245.076L239.664 52.362L237.684 60.678C236.848 64.066 236.276 66.486 235.968 67.938L234.714 73.086L234.252 75H233.46L227.982 51.9ZM261.432 54.87H266.052C266.052 52.406 265.81 50.822 265.326 50.118C265.062 49.722 264.71 49.48 264.27 49.392C263.83 49.26 263.192 49.194 262.356 49.194H261.432V40.812H262.356C266.14 40.812 269.044 41.12 271.068 41.736C273.136 42.352 274.654 43.364 275.622 44.772C276.502 46.004 277.03 47.588 277.206 49.524C277.426 51.46 277.536 54.364 277.536 58.236V60.876H261.432V54.87ZM263.676 75.528C259.628 75.528 256.438 75.198 254.106 74.538C251.818 73.834 250.102 72.734 248.958 71.238C247.946 69.918 247.286 68.29 246.978 66.354C246.67 64.374 246.516 61.668 246.516 58.236C246.516 55.068 246.626 52.56 246.846 50.712C247.066 48.82 247.528 47.214 248.232 45.894C249.024 44.442 250.234 43.32 251.862 42.528C253.534 41.692 255.8 41.164 258.66 40.944V60.876C258.66 62.372 258.726 63.45 258.858 64.11C258.99 64.726 259.298 65.188 259.782 65.496C260.31 65.848 261.124 66.046 262.224 66.09C263.632 66.178 265.128 66.222 266.712 66.222C269.528 66.222 271.574 66.156 272.85 66.024L276.216 65.76V74.274C274.456 74.802 272.036 75.154 268.956 75.33C267.46 75.462 265.7 75.528 263.676 75.528ZM284.244 25.962H296.454V75H284.244V25.962ZM325.813 50.382C324.713 50.206 323.129 50.118 321.061 50.118C319.697 50.118 318.729 50.206 318.157 50.382V40.812C321.281 40.856 324.515 41.252 327.859 42V50.58L325.813 50.382ZM317.695 75.528C314.263 75.528 311.535 75.11 309.511 74.274C307.487 73.438 305.991 72.206 305.023 70.578C304.143 69.17 303.571 67.52 303.307 65.628C303.087 63.736 302.977 61.272 302.977 58.236C302.977 55.464 303.087 53.154 303.307 51.306C303.527 49.458 303.989 47.83 304.693 46.422C305.529 44.794 306.783 43.54 308.455 42.66C310.171 41.736 312.481 41.164 315.385 40.944V58.17C315.385 60.106 315.429 61.558 315.517 62.526C315.649 63.494 315.891 64.242 316.243 64.77C316.639 65.298 317.189 65.672 317.893 65.892C318.641 66.112 319.697 66.222 321.061 66.222C323.393 66.222 324.999 66.156 325.879 66.024L328.123 65.76V74.34C324.867 75.132 321.391 75.528 317.695 75.528ZM353.457 58.236C353.457 55.992 353.435 54.496 353.391 53.748C353.347 52.692 353.215 51.9 352.995 51.372C352.775 50.8 352.423 50.448 351.939 50.316C351.411 50.184 350.685 50.118 349.761 50.118H348.837V40.812H349.761C353.589 40.812 356.581 41.12 358.737 41.736C360.893 42.308 362.499 43.276 363.555 44.64C364.523 45.872 365.139 47.522 365.403 49.59C365.711 51.614 365.865 54.496 365.865 58.236C365.865 61.712 365.755 64.418 365.535 66.354C365.359 68.246 364.897 69.808 364.149 71.04C363.313 72.404 362.059 73.438 360.387 74.142C358.715 74.802 356.405 75.22 353.457 75.396V58.236ZM349.761 75.528C345.933 75.528 342.941 75.242 340.785 74.67C338.629 74.098 337.023 73.13 335.967 71.766C334.999 70.534 334.361 68.906 334.053 66.882C333.789 64.858 333.657 61.976 333.657 58.236C333.657 54.804 333.767 52.12 333.987 50.184C334.207 48.248 334.691 46.642 335.439 45.366C336.231 43.958 337.463 42.924 339.135 42.264C340.807 41.56 343.117 41.12 346.065 40.944V58.236C346.065 60.48 346.087 61.954 346.131 62.658C346.175 63.714 346.307 64.506 346.527 65.034C346.747 65.562 347.121 65.892 347.649 66.024C348.089 66.156 348.793 66.222 349.761 66.222H350.685V75.528H349.761ZM390.83 54.474C390.83 53.418 390.72 52.604 390.5 52.032C390.324 51.592 390.038 51.328 389.642 51.24C389.29 51.108 388.652 51.042 387.728 51.042H387.398V42.792C389.114 41.516 391.49 40.878 394.526 40.878C395.89 40.878 397.078 41.054 398.09 41.406C399.102 41.714 399.96 42.286 400.664 43.122C402.248 45.058 403.04 48.666 403.04 53.946V75H390.83V54.474ZM409.244 54.474C409.244 53.418 409.134 52.604 408.914 52.032C408.738 51.592 408.452 51.328 408.056 51.24C407.704 51.108 407.066 51.042 406.142 51.042H405.812C405.724 49.898 405.592 48.71 405.416 47.478C405.064 45.718 404.69 44.442 404.294 43.65C406.142 41.802 408.782 40.878 412.214 40.878C415.954 40.878 418.506 42.088 419.87 44.508C420.486 45.564 420.904 46.862 421.124 48.402C421.344 49.898 421.454 51.746 421.454 53.946V75H409.244V54.474ZM372.416 41.34H384.626V75H372.416V41.34ZM442.932 54.87H447.552C447.552 52.406 447.31 50.822 446.826 50.118C446.562 49.722 446.21 49.48 445.77 49.392C445.33 49.26 444.692 49.194 443.856 49.194H442.932V40.812H443.856C447.64 40.812 450.544 41.12 452.568 41.736C454.636 42.352 456.154 43.364 457.122 44.772C458.002 46.004 458.53 47.588 458.706 49.524C458.926 51.46 459.036 54.364 459.036 58.236V60.876H442.932V54.87ZM445.176 75.528C441.128 75.528 437.938 75.198 435.606 74.538C433.318 73.834 431.602 72.734 430.458 71.238C429.446 69.918 428.786 68.29 428.478 66.354C428.17 64.374 428.016 61.668 428.016 58.236C428.016 55.068 428.126 52.56 428.346 50.712C428.566 48.82 429.028 47.214 429.732 45.894C430.524 44.442 431.734 43.32 433.362 42.528C435.034 41.692 437.3 41.164 440.16 40.944V60.876C440.16 62.372 440.226 63.45 440.358 64.11C440.49 64.726 440.798 65.188 441.282 65.496C441.81 65.848 442.624 66.046 443.724 66.09C445.132 66.178 446.628 66.222 448.212 66.222C451.028 66.222 453.074 66.156 454.35 66.024L457.716 65.76V74.274C455.956 74.802 453.536 75.154 450.456 75.33C448.96 75.462 447.2 75.528 445.176 75.528Z" fill="black"/>
<g filter="url(#filter0_d)">
<path d="M30.915 49.36C30.915 45.88 30.895 43.6 30.855 42.52C30.775 40.84 30.615 39.66 30.375 38.98C30.095 38.3 29.655 37.88 29.055 37.72C28.495 37.52 27.535 37.42 26.175 37.42C25.575 37.42 24.835 37.46 23.955 37.54V28.3C24.195 28.26 24.555 28.24 25.035 28.24H26.175C30.375 28.24 33.615 28.6 35.895 29.32C38.175 30 39.855 31.14 40.935 32.74C41.935 34.22 42.555 36.16 42.795 38.56C43.035 40.96 43.155 44.56 43.155 49.36C43.155 53.68 43.055 56.96 42.855 59.2C42.695 61.44 42.255 63.32 41.535 64.84C40.735 66.52 39.495 67.8 37.815 68.68C36.175 69.52 33.875 70.06 30.915 70.3V49.36ZM26.175 70.48C22.015 70.48 18.775 70.14 16.455 69.46C14.175 68.74 12.495 67.56 11.415 65.92C10.415 64.44 9.795 62.52 9.555 60.16C9.315 57.8 9.195 54.2 9.195 49.36C9.195 45.04 9.275 41.76 9.435 39.52C9.635 37.28 10.095 35.4 10.815 33.88C11.615 32.2 12.835 30.94 14.475 30.1C16.155 29.22 18.475 28.66 21.435 28.42V49.36C21.435 52.8 21.455 55.06 21.495 56.14C21.575 57.74 21.755 58.94 22.035 59.74C22.315 60.42 22.735 60.86 23.295 61.06C23.855 61.22 24.815 61.3 26.175 61.3H27.375C27.655 61.3 27.995 61.26 28.395 61.18V70.42C28.155 70.46 27.795 70.48 27.315 70.48H26.175Z" fill="#494949"/>
<path d="M58.7044 40.78L51.0844 43.66V34.3L62.7244 28.72H70.7044V70H58.7044V40.78Z" fill="white"/>
<path d="M6.375 78.1H50.475V82.9H6.375V78.1Z" fill="#494949"/>
<path d="M50.4844 78.1H74.6044V82.9H50.4844V78.1Z" fill="white"/>
</g>
<rect x="15.7563" y="114.75" width="485.279" height="3.5" fill="#C4C4C4"/>
<rect x="501.035" y="113" width="40.9651" height="7" fill="white"/>
<rect y="113" width="40.9651" height="7" fill="white"/>
<defs>
<filter id="filter0_d" x="2.375" y="28.24" width="76.2294" height="62.66" filterUnits="userSpaceOnUse" color-interpolation-filters="sRGB">
<feFlood flood-opacity="0" result="BackgroundImageFix"/>
<feColorMatrix in="SourceAlpha" type="matrix" values="0 0 0 0 0 0 0 0 0 0 0 0 0 0 0 0 0 0 127 0"/>
<feOffset dy="4"/>
<feGaussianBlur stdDeviation="2"/>
<feColorMatrix type="matrix" values="0 0 0 0 0 0 0 0 0 0 0 0 0 0 0 0 0 0 1 0"/>
<feBlend mode="normal" in2="BackgroundImageFix" result="effect1_dropShadow"/>
<feBlend mode="normal" in="SourceGraphic" in2="effect1_dropShadow" result="shape"/>
</filter>
</defs>
</svg>
