<svg width="50" height="50" viewBox="0 0 77 77" fill="none" xmlns="http://www.w3.org/2000/svg">
<rect x="38.2547" y="19.092" width="9" height="9" transform="rotate(45 38.2547 19.092)" stroke="#66FCF1" stroke-width="4" stroke-linejoin="round"/>
<path fill-rule="evenodd" clip-rule="evenodd" d="M49.3916 30.2289L55.7556 36.5929L49.3916 42.9569L43.0276 36.5929L49.3916 30.2289Z" stroke="#66FCF1" stroke-width="4" stroke-linejoin="round"/>
<rect x="27.1178" y="30.2289" width="9" height="9" transform="rotate(45 27.1178 30.2289)" stroke="#66FCF1" stroke-width="4" stroke-linejoin="round"/>
<rect x="38.2547" y="41.3659" width="9" height="9" transform="rotate(45 38.2547 41.3659)" stroke="#66FCF1" stroke-width="4" stroke-linejoin="round"/>
<path d="M45.3258 9.89962L66.539 31.1128L69.3674 28.2844L48.1542 7.07119L45.3258 9.89962ZM66.539 45.255L45.3258 66.4682L48.1542 69.2966L69.3674 48.0834L66.539 45.255ZM31.1836 66.4682L9.97043 45.255L7.142 48.0834L28.3552 69.2966L31.1836 66.4682ZM9.97043 31.1128L31.1836 9.89962L28.3552 7.07119L7.142 28.2844L9.97043 31.1128ZM9.97043 45.255C6.06518 41.3497 6.06519 35.0181 9.97043 31.1128L7.142 28.2844C1.67466 33.7517 1.67466 42.616 7.142 48.0834L9.97043 45.255ZM45.3258 66.4682C41.4205 70.3734 35.0889 70.3734 31.1836 66.4682L28.3552 69.2966C33.8225 74.7639 42.6869 74.7639 48.1542 69.2966L45.3258 66.4682ZM66.539 31.1128C70.4442 35.0181 70.4442 41.3497 66.539 45.255L69.3674 48.0834C74.8347 42.616 74.8347 33.7517 69.3674 28.2844L66.539 31.1128ZM48.1542 7.07119C42.6869 1.60385 33.8225 1.60385 28.3552 7.07119L31.1836 9.89962C35.0889 5.99437 41.4205 5.99437 45.3258 9.89962L48.1542 7.07119Z" fill="white"/>
</svg>
