<svg viewBox="0 0 313 112" fill="none" xmlns="http://www.w3.org/2000/svg">
<path d="M102.737 56.576C102.737 52.458 102.713 49.76 102.666 48.482C102.571 46.5413 102.311 45.145 101.885 44.293C101.459 43.3937 100.773 42.8493 99.826 42.66C98.8793 42.518 97.5303 42.447 95.779 42.447C93.7437 42.447 92.4183 42.5417 91.803 42.731V31.655C92.229 31.6077 92.868 31.584 93.72 31.584H95.779C101.08 31.584 105.175 32.01 108.062 32.862C110.997 33.6667 113.127 35.0157 114.452 36.909C115.683 38.6603 116.44 40.956 116.724 43.796C117.055 46.636 117.221 50.896 117.221 56.576C117.221 61.546 117.103 65.38 116.866 68.078C116.677 70.7287 116.156 72.9297 115.304 74.681C114.357 76.669 112.89 78.1837 110.902 79.225C108.961 80.2663 106.24 80.9527 102.737 81.284V56.576ZM95.779 81.568C88.8683 81.568 83.8983 80.8107 80.869 79.296C79.307 78.5387 78.0763 77.521 77.177 76.243C76.2777 74.965 75.615 73.3793 75.189 71.486C74.8103 69.8293 74.5737 67.936 74.479 65.806C74.3843 63.6287 74.337 60.552 74.337 56.576C74.337 51.606 74.4317 47.7957 74.621 45.145C74.8577 42.4943 75.402 40.2697 76.254 38.471C77.2007 36.5303 78.6443 35.0393 80.585 33.998C82.5257 32.9567 85.271 32.2467 88.821 31.868V56.576C88.821 59.3687 88.8683 62.043 88.963 64.599C89.0577 66.5397 89.2943 67.9597 89.673 68.859C90.099 69.7583 90.7853 70.279 91.732 70.421C92.5367 70.6103 93.8857 70.705 95.779 70.705C97.7197 70.705 99.045 70.634 99.755 70.492V81.497C99.329 81.5443 98.69 81.568 97.838 81.568H95.779ZM125.19 32.152H139.39V81H125.19V32.152ZM145.212 64.386H142.372V53.523H144.786C146.254 53.523 147.366 53.4757 148.123 53.381C148.881 53.239 149.472 53.0023 149.898 52.671C150.277 52.3397 150.537 51.8427 150.679 51.18C150.821 50.5173 150.892 49.547 150.892 48.269C150.892 46.991 150.821 46.0207 150.679 45.358C150.537 44.648 150.277 44.1273 149.898 43.796C149.52 43.4647 148.952 43.2517 148.194 43.157C147.484 43.0623 146.348 43.015 144.786 43.015H142.372V32.152H149.685C153.046 32.152 155.768 32.4833 157.85 33.146C159.933 33.8087 161.542 34.8263 162.678 36.199C163.72 37.477 164.406 39.0627 164.737 40.956C165.116 42.8493 165.305 45.287 165.305 48.269C165.305 52.103 164.95 55.0613 164.24 57.144C163.246 59.7947 161.495 61.6643 158.986 62.753L166.37 81H151.46L145.212 64.386ZM173.032 32.152H187.232V81H173.032V32.152Z" fill="white"/>
<path d="M212.656 31.726C214.549 31.6313 216.111 31.584 217.342 31.584C221.602 31.584 225.507 31.868 229.057 32.436C230.855 32.6253 232.583 32.9093 234.24 33.288V43.441C232.252 43.2517 230.761 43.086 229.767 42.944C228.962 42.8967 227.66 42.7783 225.862 42.589C224.063 42.4943 222.88 42.447 222.312 42.447C219.424 42.447 217.294 42.518 215.922 42.66C214.596 42.7547 213.508 43.0387 212.656 43.512V31.726ZM217.342 81.568C212.608 81.568 208.822 81.213 205.982 80.503C203.189 79.793 201.012 78.5387 199.45 76.74C197.888 74.9413 196.775 72.4563 196.113 69.285C195.497 66.1137 195.19 61.8773 195.19 56.576C195.19 52.0793 195.403 48.3873 195.829 45.5C196.255 42.6127 196.988 40.246 198.03 38.4C199.118 36.5067 200.586 35.063 202.432 34.069C204.278 33.075 206.692 32.3887 209.674 32.01V56.576C209.674 59.9367 209.768 62.5163 209.958 64.315C210.147 66.0663 210.502 67.4153 211.023 68.362C211.591 69.356 212.395 70.0423 213.437 70.421C214.525 70.7997 216.064 70.989 218.052 70.989V81.568H217.342ZM221.034 62.256H215.993V51.961H234.453V79.793C232.228 80.3137 229.459 80.716 226.146 81C224.536 81.2367 222.832 81.3787 221.034 81.426V62.256ZM243.339 32.152H257.539V81H243.339V32.152ZM266.774 34.14V32.152H280.974L308.38 78.941V81H294.251L266.774 34.14ZM294.89 49.973V32.152H308.38V73.048L294.89 49.973ZM266.774 40.033L280.264 63.108V81H266.774V40.033Z" fill="#66FCF1"/>
<path d="M71 90.585H191.847V96.265H71V90.585Z" fill="white"/>
<path d="M191.853 90.585H312.995V96.265H191.853V90.585Z" fill="#66FCF1"/>
<path d="M20.809 28.247H32.24L11.579 84.905H0.219L20.809 28.247ZM51.2475 28.247H62.6785L42.0175 84.905H30.6575L51.2475 28.247Z" fill="#2A2A2A"/>
<path d="M1 90.585H61.8975V96.265H1V90.585Z" fill="#2A2A2A"/>
</svg>
